<svg xmlns="http://www.w3.org/2000/svg" width="14.517" height="17.831" viewBox="0 0 14.517 17.831">
  <path id="apple" d="M71.585,9.449a4.034,4.034,0,0,1,1.924-3.394,4.163,4.163,0,0,0-3.261-1.766c-1.389-.14-2.709.818-3.415.818s-1.791-.8-2.942-.776A4.364,4.364,0,0,0,60.2,6.567c-1.572,2.728-.4,6.771,1.13,8.983.749,1.083,1.641,2.3,2.814,2.257,1.129-.044,1.556-.731,2.921-.731s1.748.731,2.943.708c1.215-.022,1.984-1.1,2.728-2.191a9.829,9.829,0,0,0,1.235-2.535A3.937,3.937,0,0,1,71.581,9.45h0ZM69.34,2.823a3.928,3.928,0,0,0,.927-2.847,4,4,0,0,0-2.626,1.351,3.74,3.74,0,0,0-.947,2.759,3.306,3.306,0,0,0,2.645-1.261Z" transform="translate(-59.457 0.024)" fill="#fff" fill-rule="evenodd" opacity="0.76"/>
</svg>
