<svg id="attached" xmlns="http://www.w3.org/2000/svg" width="11.276" height="12.299" viewBox="0 0 11.276 12.299">
  <g id="Group_849" data-name="Group 849" transform="translate(0)">
    <path id="Path_764" data-name="Path 764" d="M24.753,3.6l.517-.517L29.507,7.32A1.35,1.35,0,1,1,27.6,9.229l-5.69-5.69A2.073,2.073,0,0,1,24.84.607l6.918,6.918A2.8,2.8,0,0,1,27.8,11.48L22.338,6.016l.517-.517,5.465,5.465a2.066,2.066,0,1,0,2.922-2.922L24.323,1.124a1.342,1.342,0,0,0-1.9,1.9l5.69,5.69a.619.619,0,1,0,.875-.875Z" transform="translate(-21.301)" fill="#858381"/>
  </g>
</svg>
