<svg xmlns="http://www.w3.org/2000/svg" width="11.518" height="11.462" viewBox="0 0 11.518 11.462">
  <path id="Path_3163" data-name="Path 3163" d="M3.172,4.714a9.561,9.561,0,0,0,1.413,1.98,8.093,8.093,0,0,0,2.24,1.653.233.233,0,0,0,.194.01.834.834,0,0,0,.269-.2,3,3,0,0,0,.246-.3c.36-.473.805-1.061,1.434-.767.014.007.024.014.038.02l2.1,1.207.02.014a.946.946,0,0,1,.394.817,2.212,2.212,0,0,1-.308,1.041,2.131,2.131,0,0,1-1.009.892,4.6,4.6,0,0,1-1.244.338,4.221,4.221,0,0,1-1.9-.158,8.432,8.432,0,0,1-1.912-.923l-.05-.032c-.31-.194-.646-.4-.975-.646A12.229,12.229,0,0,1,.89,5.992,5.959,5.959,0,0,1,.054,2.222,2.705,2.705,0,0,1,.97.5,2.456,2.456,0,0,1,2.8.017a.263.263,0,0,1,.211.135L4.351,2.426a.711.711,0,0,1,.113.761,1.479,1.479,0,0,1-.515.577c-.072.062-.158.125-.249.19-.3.218-.643.471-.526.767l0-.008Z" transform="translate(0.001 -0.003)" fill="#fff"/>
</svg>
