<svg xmlns="http://www.w3.org/2000/svg" width="14.663" height="14.166" viewBox="0 0 14.663 14.166">
  <g id="calling" transform="translate(0.001 0.008)">
    <path id="Path_3068" data-name="Path 3068" d="M3.485,6.739A10.511,10.511,0,0,0,5.039,8.916,8.837,8.837,0,0,0,7.5,10.732a.257.257,0,0,0,.212.012.914.914,0,0,0,.3-.216,3.36,3.36,0,0,0,.27-.331c.395-.52.885-1.166,1.576-.844.016.007.027.016.042.023L12.2,10.7c.007,0,.016.012.023.016a1.04,1.04,0,0,1,.433.9,2.428,2.428,0,0,1-.338,1.143,2.339,2.339,0,0,1-1.108.98,5.046,5.046,0,0,1-1.367.372,4.632,4.632,0,0,1-2.088-.174,9.232,9.232,0,0,1-2.1-1.014L5.6,12.887c-.341-.212-.71-.441-1.071-.71A13.42,13.42,0,0,1,.978,8.146,6.547,6.547,0,0,1,.058,4,2.974,2.974,0,0,1,1.065,2.114a2.7,2.7,0,0,1,2.006-.536.289.289,0,0,1,.231.148l1.478,2.5a.783.783,0,0,1,.125.836,1.625,1.625,0,0,1-.566.634c-.08.068-.174.137-.273.209-.331.24-.706.517-.577.844l0-.007ZM8.75.894A.448.448,0,0,1,8.581.846.458.458,0,0,1,8.443.738.468.468,0,0,1,8.356.584.469.469,0,0,1,8.336.41V.4A.433.433,0,0,1,8.384.239l0-.008A.423.423,0,0,1,8.493.1.456.456,0,0,1,8.647.015a.448.448,0,0,1,.169-.021h.012A7.681,7.681,0,0,1,10.012.18,6.673,6.673,0,0,1,11.1.543a5.969,5.969,0,0,1,.978.539A5.615,5.615,0,0,1,13.614,2.64a6.136,6.136,0,0,1,.525.988,6.752,6.752,0,0,1,.348,1.1,7.794,7.794,0,0,1,.173,1.191v.042a.472.472,0,0,1-.027.159.434.434,0,0,1-.085.143.459.459,0,0,1-.131.1.451.451,0,0,1-.156.048l-.024,0h-.023a.422.422,0,0,1-.16-.027.452.452,0,0,1-.251-.224.452.452,0,0,1-.045-.169,6.823,6.823,0,0,0-.15-1.05,5.766,5.766,0,0,0-.3-.956,5.041,5.041,0,0,0-.444-.842,4.792,4.792,0,0,0-.582-.724,4.728,4.728,0,0,0-.712-.594,5,5,0,0,0-.836-.458l0,0a5.715,5.715,0,0,0-.94-.311A7.048,7.048,0,0,0,8.75.894ZM7.758,5.149A.462.462,0,0,1,7.59,5.1a.44.44,0,0,1-.135-.112.474.474,0,0,1-.08-.147.441.441,0,0,1-.021-.159c0-.016,0-.027,0-.042a.456.456,0,0,1,.054-.157.439.439,0,0,1,.107-.126.452.452,0,0,1,.307-.1l.042,0a3.681,3.681,0,0,1,.513.092,3.219,3.219,0,0,1,.475.162l0,0a2.714,2.714,0,0,1,.426.234,2.543,2.543,0,0,1,.679.677,2.689,2.689,0,0,1,.237.427,3.088,3.088,0,0,1,.163.475,3.62,3.62,0,0,1,.091.521.475.475,0,0,1-.016.175v0a.468.468,0,0,1-.08.15v0a.451.451,0,0,1-.135.111.44.44,0,0,1-.168.051h-.006a.472.472,0,0,1-.169-.017.442.442,0,0,1-.155-.082h0a.451.451,0,0,1-.163-.3v0a2.575,2.575,0,0,0-.064-.372,2.1,2.1,0,0,0-.113-.336,1.807,1.807,0,0,0-.157-.289,1.679,1.679,0,0,0-.2-.245,1.608,1.608,0,0,0-.246-.2,1.907,1.907,0,0,0-.294-.159l-.006,0a2.152,2.152,0,0,0-.334-.112,2.365,2.365,0,0,0-.385-.07Zm.477-2.055H8.223l-.016,0a.443.443,0,0,1-.155-.047.477.477,0,0,1-.131-.1h0A.436.436,0,0,1,7.834,2.8a.467.467,0,0,1-.026-.165v-.02l0-.019a.444.444,0,0,1,.047-.154.45.45,0,0,1,.254-.221.447.447,0,0,1,.174-.024,6.084,6.084,0,0,1,.9.121A4.772,4.772,0,0,1,10,2.561a4.067,4.067,0,0,1,.711.375,3.6,3.6,0,0,1,1.075,1.112,4.006,4.006,0,0,1,.351.722,4.856,4.856,0,0,1,.22.816,6.186,6.186,0,0,1,.092.909v.017a.426.426,0,0,1-.032.165.471.471,0,0,1-.091.143.423.423,0,0,1-.143.1.447.447,0,0,1-.171.039h-.02a.451.451,0,0,1-.3-.123.447.447,0,0,1-.142-.315,5.156,5.156,0,0,0-.075-.756A3.987,3.987,0,0,0,11.3,5.1a3.144,3.144,0,0,0-.27-.567,2.685,2.685,0,0,0-.823-.853,3.15,3.15,0,0,0-.557-.29l0,0a4.047,4.047,0,0,0-.653-.194,5.121,5.121,0,0,0-.746-.1Z" transform="translate(0 0)" fill="#fff"/>
  </g>
</svg>
