<svg xmlns="http://www.w3.org/2000/svg" width="25.329" height="22.313" viewBox="0 0 25.329 22.313">
  <path id="chat-bubble" d="M10.537,19.306A9.122,9.122,0,0,0,20.761,21.05l3.169,1.237L22.874,19.8c3.521-2.82,2.886-6.7.3-9.339a9.15,9.15,0,0,1-1.006,2.87,10.607,10.607,0,0,1-2.909,3.317,12.887,12.887,0,0,1-4.068,2.062,14.652,14.652,0,0,1-4.651.6ZM15.4,7.429a1.377,1.377,0,1,1-1.377,1.377A1.377,1.377,0,0,1,15.4,7.429Zm-9.1,0A1.377,1.377,0,1,1,4.919,8.806,1.377,1.377,0,0,1,6.3,7.429Zm4.552,0A1.377,1.377,0,1,1,9.473,8.806a1.377,1.377,0,0,1,1.375-1.377ZM11.123-.02h0a12.181,12.181,0,0,1,7.546,2.781A8.138,8.138,0,0,1,21.7,9.152h0a8.118,8.118,0,0,1-3.412,6.208,12.149,12.149,0,0,1-7.7,2.35,13.335,13.335,0,0,1-2.406-.289,12.576,12.576,0,0,1-2.062-.633L1.464,18.611l1.555-3.695a9.04,9.04,0,0,1-2.2-2.773A7.463,7.463,0,0,1-.01,8.528,8.125,8.125,0,0,1,3.4,2.318,12.308,12.308,0,0,1,11.123-.02Zm-.029,1.072h0A11.158,11.158,0,0,0,4.049,3.167,7.055,7.055,0,0,0,1.06,8.557a6.432,6.432,0,0,0,.705,3.107,8.1,8.1,0,0,0,2.229,2.68l.326.247-.891,2.1,2.7-1.06.206.087a11.461,11.461,0,0,0,2.072.656,12.164,12.164,0,0,0,2.208.266,11.122,11.122,0,0,0,7.034-2.115,7.072,7.072,0,0,0,2.991-5.389h0a7.069,7.069,0,0,0-2.66-5.55A11.084,11.084,0,0,0,11.1,1.052Z" transform="translate(0.013 0.025)" fill="#fff" fill-rule="evenodd"/>
</svg>
