<svg xmlns="http://www.w3.org/2000/svg" width="16.394" height="12.72" viewBox="0 0 16.394 12.72">
  <path id="group-chat" d="M7.349,10.547c-1.8,0-.616.44-.37-1.519.368-2.935,3.155-2.935,3.567,0,.267,1.88,1.394,1.519-.372,1.519h-.7c0,.483-.075.726.422,1a6.128,6.128,0,0,0,.838.295c.63-.376,1.574-.145,1.68-1.041.017-.147-.331-.51-.41-.783a.988.988,0,0,1-.045-.988A1.03,1.03,0,0,0,12,8.542c0-1.566,2.735-1.566,2.735,0,0,.2-.044.358.061.512a.991.991,0,0,1-.064.96c-.1.284-.47.627-.434.783.253,1.289,1.937-.053,2.1,1.922H0c.2-2.314,2.5-.892,2.689-2.507.021-.181-.41-.676-.51-1.01a1.223,1.223,0,0,1-.055-1.23,1.045,1.045,0,0,0,.052-.54c0-1.94,3.4-1.941,3.4,0,0,.245-.056.384.077.576A1.237,1.237,0,0,1,5.573,9.2c-.12.351-.579.812-.534,1.01.255,1.3,1.571.523,2.212,1.494a2.48,2.48,0,0,0,.446-.2c.448-.267.364-.524.36-.962h-.7ZM4.974,0h5.171a.934.934,0,0,1,.934.934V3.61a.934.934,0,0,1-.934.934H6.585L5.169,5.758a.156.156,0,0,1-.257-.133l.075-1.089H4.974A.934.934,0,0,1,4.041,3.6V.934A.934.934,0,0,1,4.974,0Zm6.559,1.966a.914.914,0,0,1,.739.9V5.091A.915.915,0,0,1,11.362,6H11.33l.076,1.109h0a.133.133,0,0,1-.225.113L9.76,5.968H5.939l.922-.934h3.9a.776.776,0,0,0,.775-.775V1.966Zm-6.1.85a.157.157,0,1,1,0-.313H9.027a.157.157,0,0,1,0,.313Zm0-1.078a.157.157,0,1,1,0-.313H9.713a.157.157,0,1,1,0,.313ZM10.138.315H4.974a.619.619,0,0,0-.618.619V3.61a.619.619,0,0,0,.618.618h.191a.155.155,0,0,1,.145.175l-.061.88L6.417,4.269a.157.157,0,0,1,.111-.045h3.611a.619.619,0,0,0,.618-.618V.934a.619.619,0,0,0-.618-.619Z" fill="#fff" fill-rule="evenodd"/>
</svg>
