<svg xmlns="http://www.w3.org/2000/svg" width="12.613" height="12.613" viewBox="0 0 12.613 12.613">
  <path id="happy" d="M4.684.2A6.306,6.306,0,1,1,.859,3.14,6.306,6.306,0,0,1,4.684.2Zm-1.531,7a3.9,3.9,0,0,0,.855.821,4.143,4.143,0,0,0,2.419.728,3.9,3.9,0,0,0,2.336-.792,3.442,3.442,0,0,0,.726-.761.023.023,0,0,1,.031-.006l.238.235a.022.022,0,0,1,0,.028A4.459,4.459,0,0,1,8.393,8.919a3.662,3.662,0,0,1-1.949.615,3.777,3.777,0,0,1-2-.539A4.872,4.872,0,0,1,2.872,7.465a.024.024,0,0,1,0-.028L3.116,7.2a.023.023,0,0,1,.031,0h0ZM7.832,3.463c.416,0,.754.489.754,1.092s-.337,1.091-.754,1.091-.754-.489-.754-1.091S7.416,3.463,7.832,3.463Zm-3.034,0c.416,0,.754.489.754,1.092S5.215,5.647,4.8,5.647s-.754-.489-.754-1.091S4.382,3.463,4.8,3.463ZM9.117,1.438a5.6,5.6,0,1,0,2.608,3.4,5.6,5.6,0,0,0-2.608-3.4Z" transform="translate(-0.015 0.014)" fill="#858381"/>
</svg>
