<svg xmlns="http://www.w3.org/2000/svg" width="24.947" height="24.947" viewBox="0 0 24.947 24.947">
  <g id="face-id-svgrepo-com" transform="translate(0.75 0.75)" opacity="0.76">
    <path id="Path_3122" data-name="Path 3122" d="M8.21,3H5.605A2.605,2.605,0,0,0,3,5.605V8.21" transform="translate(-3 -3)" fill="none" stroke="#fff" stroke-linecap="round" stroke-linejoin="round" stroke-width="1.5"/>
    <path id="Path_3123" data-name="Path 3123" d="M17,3h2.605A2.605,2.605,0,0,1,22.21,5.605V8.21" transform="translate(1.236 -3)" fill="none" stroke="#fff" stroke-linecap="round" stroke-linejoin="round" stroke-width="1.5"/>
    <path id="Path_3124" data-name="Path 3124" d="M16,8v2.605" transform="translate(0.934 -1.487)" fill="none" stroke="#fff" stroke-linecap="round" stroke-linejoin="round" stroke-width="1.5"/>
    <path id="Path_3125" data-name="Path 3125" d="M8,8v2.605" transform="translate(-1.487 -1.487)" fill="none" stroke="#fff" stroke-linecap="round" stroke-linejoin="round" stroke-width="1.5"/>
    <path id="Path_3126" data-name="Path 3126" d="M9,16a5.705,5.705,0,0,0,3.908,1.3A5.705,5.705,0,0,0,16.816,16" transform="translate(-1.185 0.934)" fill="none" stroke="#fff" stroke-linecap="round" stroke-linejoin="round" stroke-width="1.5"/>
    <path id="Path_3127" data-name="Path 3127" d="M12.3,8v6.513H11" transform="translate(-0.579 -1.487)" fill="none" stroke="#fff" stroke-linecap="round" stroke-linejoin="round" stroke-width="1.5"/>
    <path id="Path_3128" data-name="Path 3128" d="M8.21,22.21H5.605A2.605,2.605,0,0,1,3,19.605V17" transform="translate(-3 1.236)" fill="none" stroke="#fff" stroke-linecap="round" stroke-linejoin="round" stroke-width="1.5"/>
    <path id="Path_3129" data-name="Path 3129" d="M17,22.21h2.605a2.605,2.605,0,0,0,2.605-2.605V17" transform="translate(1.236 1.236)" fill="none" stroke="#fff" stroke-linecap="round" stroke-linejoin="round" stroke-width="1.5"/>
  </g>
</svg>
