<svg xmlns="http://www.w3.org/2000/svg" width="23.559" height="22.406" viewBox="0 0 23.559 22.406">
  <g id="add-user_1_" data-name="add-user (1)" transform="translate(-20.382)">
    <path id="Path_3142" data-name="Path 3142" d="M30.375,22.406a.875.875,0,0,1-.875-.875,7.974,7.974,0,0,1,7.965-7.965h1.313a7.949,7.949,0,0,1,2.623.442.875.875,0,0,1-.576,1.653,6.2,6.2,0,0,0-2.047-.345H37.465A6.221,6.221,0,0,0,31.25,21.53.875.875,0,0,1,30.375,22.406Zm13.566-16.5a5.908,5.908,0,1,0-5.908,5.908A5.914,5.914,0,0,0,43.941,5.908Zm-1.75,0A4.157,4.157,0,1,1,38.033,1.75,4.162,4.162,0,0,1,42.191,5.908Z" transform="translate(-9.118 0)" fill="#fff"/>
    <path id="Path_2582" data-name="Path 2582" d="M101.846,25.033a5.034,5.034,0,0,1,3.479-4.788,5.033,5.033,0,1,0,0,9.576A5.034,5.034,0,0,1,101.846,25.033Z" transform="translate(-66.209 -19.125)" fill="#cee1f2"/>
    <path id="Path_2583" data-name="Path 2583" d="M30.375,22.406a.875.875,0,0,1-.875-.875,7.974,7.974,0,0,1,7.965-7.965h1.313a7.949,7.949,0,0,1,2.623.442.875.875,0,0,1-.576,1.653,6.2,6.2,0,0,0-2.047-.345H37.465A6.221,6.221,0,0,0,31.25,21.53.875.875,0,0,1,30.375,22.406Zm13.566-16.5a5.908,5.908,0,1,0-5.908,5.908A5.914,5.914,0,0,0,43.941,5.908Zm-1.75,0A4.157,4.157,0,1,1,38.033,1.75,4.162,4.162,0,0,1,42.191,5.908Z" transform="translate(0 0)" fill="#fff"/>
  </g>
</svg>
