<svg xmlns="http://www.w3.org/2000/svg" width="21.894" height="14.857" viewBox="0 0 21.894 14.857">
  <g id="google_" data-name="google +" opacity="0.76">
    <path id="Path_133" data-name="Path 133" d="M11.312,18.628c0,.844,0,1.688,0,2.532,1.415.046,2.834.025,4.249.046-.624,3.139-4.894,4.157-7.154,2.107a4.756,4.756,0,0,1,.2-7.413,4.9,4.9,0,0,1,5.778.152A26.435,26.435,0,0,0,16.274,14.1a7.527,7.527,0,0,0-4.962-1.834A7.432,7.432,0,0,0,8.621,26.622a7.331,7.331,0,0,0,8.452-2.245,8.515,8.515,0,0,0,1.341-5.742C16.044,18.617,13.678,18.621,11.312,18.628Z" transform="translate(-3.884 -12.262)" fill="#fff"/>
    <path id="Path_134" data-name="Path 134" d="M44.276,23.379c-.007-.706-.011-1.415-.014-2.121h-2.11c-.007.706-.014,1.412-.018,2.121q-1.064.005-2.121.014V25.5l2.121.021c.007.706.007,1.412.014,2.117h2.114c0-.706.007-1.412.014-2.121.709-.007,1.415-.011,2.121-.018v-2.11C45.691,23.386,44.982,23.386,44.276,23.379Z" transform="translate(-24.502 -17.024)" fill="#fff"/>
  </g>
</svg>
