<svg xmlns="http://www.w3.org/2000/svg" width="30.283" height="30.299" viewBox="0 0 30.283 30.299">
  <g id="XMLID_862_" transform="translate(0 0)">
    <path id="XMLID_868_" d="M49.177,10.346a7.013,7.013,0,0,1,3.574-2.066l.692-.159V0l-1,.125A15.129,15.129,0,0,0,42.269,6l-.611.8,7.036,4.062ZM44.333,6.291a13.459,13.459,0,0,1,7.328-4.233V6.733a8.771,8.771,0,0,0-3.279,1.9Z" transform="translate(-39.192 0)" fill="#fff"/>
    <path id="XMLID_903_" d="M8.53,149.4a7.1,7.1,0,0,1,0-4.131l.207-.678L1.7,140.528l-.392.93a15.189,15.189,0,0,0,0,11.749l.392.93,7.036-4.062Zm-1.885-.172-4.052,2.339a13.441,13.441,0,0,1,0-8.467l4.052,2.339a8.9,8.9,0,0,0,0,3.788Z" transform="translate(-0.128 -132.184)" fill="#fff"/>
    <path id="XMLID_910_" d="M49.177,327.8l-.483-.518-7.036,4.062.611.8a15.129,15.129,0,0,0,10.173,5.873l1,.125v-8.122l-.692-.159A7.013,7.013,0,0,1,49.177,327.8Zm2.484,8.289a13.459,13.459,0,0,1-7.328-4.233l4.049-2.338a8.772,8.772,0,0,0,3.279,1.9Z" transform="translate(-39.192 -307.847)" fill="#fff"/>
    <path id="XMLID_913_" d="M274.394,327.8a7.013,7.013,0,0,1-3.574,2.066l-.692.159v8.122l1-.125a15.128,15.128,0,0,0,10.173-5.873l.611-.8-7.036-4.062Zm4.844,4.056a13.46,13.46,0,0,1-7.328,4.233v-4.676a8.773,8.773,0,0,0,3.279-1.9Z" transform="translate(-254.096 -307.846)" fill="#fff"/>
    <path id="XMLID_916_" d="M365.647,240.127v.891a7.054,7.054,0,0,1-.307,2.065l-.207.678,7.036,4.062.392-.93a15.05,15.05,0,0,0,1.182-5.875v-.891h-8.1Zm5.63,5.124-4.052-2.339a8.819,8.819,0,0,0,.159-1h4.548A13.245,13.245,0,0,1,371.277,245.251Z" transform="translate(-343.46 -225.869)" fill="#fff"/>
    <path id="XMLID_917_" d="M0,0H7.29V1.781H0Z" transform="translate(20.886 10.78) rotate(-28.743)" fill="#fff"/>
    <path id="XMLID_918_" d="M0,0H4.845V1.781H0Z" transform="translate(17.193 8.302) rotate(-63.717)" fill="#fff"/>
    <path id="XMLID_919_" d="M184.751,179.475a4.789,4.789,0,0,0-.541-2.209l-1.579.825a2.959,2.959,0,0,1,.338,1.384,2.994,2.994,0,1,1-2.994-2.995V174.7a4.776,4.776,0,1,0,4.776,4.776Z" transform="translate(-164.804 -164.326)" fill="#fff"/>
  </g>
</svg>
