<svg id="location" xmlns="http://www.w3.org/2000/svg" width="13.23" height="12.407" viewBox="0 0 13.23 12.407">
  <path id="Path_3149" data-name="Path 3149" d="M2.726,75.31a.387.387,0,1,1,0,.773H2l-.956,2.754H12.159l-1.038-2.754h-.6a.387.387,0,1,1,0-.773h1.152l1.557,4.3H0l1.434-4.3Z" transform="translate(0 -67.201)" fill="#fff" fill-rule="evenodd"/>
  <path id="Path_3150" data-name="Path 3150" d="M30.967,9a7.554,7.554,0,0,1-1.645,1.361.231.231,0,0,1-.264.009A9.282,9.282,0,0,1,26.77,8.328a7.227,7.227,0,0,1-1.538-3.317A4.45,4.45,0,0,1,25.784,1.9a3.806,3.806,0,0,1,.852-.943A4.146,4.146,0,0,1,29.238,0a3.8,3.8,0,0,1,3.136,1.814,4.926,4.926,0,0,1,.471,3.561A7.843,7.843,0,0,1,30.965,9h0Zm-1.9-6.992a1.944,1.944,0,1,1-1.944,1.944A1.944,1.944,0,0,1,29.07,2.013Z" transform="translate(-22.455 0.001)" fill="#fff" fill-rule="evenodd"/>
</svg>
