<svg xmlns="http://www.w3.org/2000/svg" width="14.977" height="10.826" viewBox="0 0 14.977 10.826">
  <path id="email-round-line" d="M30.507,38.65H43.77a.86.86,0,0,1,.857.857v9.118a.841.841,0,0,1-.148.471.344.344,0,0,1-.08.122.356.356,0,0,1-.08.057.872.872,0,0,1-.549.2H30.507a.855.855,0,0,1-.605-.252.864.864,0,0,1-.252-.6V39.507A.86.86,0,0,1,30.507,38.65Zm-.2,9.608L34.955,43.6l-4.648-3.79v8.447Zm5.159-4.24-4.791,4.8H43.56l-4.577-4.8L37.473,45.3h0a.327.327,0,0,1-.422,0l-1.585-1.291Zm4-.426L43.946,48.3V39.771Zm-8.739-4.285,6.523,5.314L43.5,39.307Z" transform="translate(-29.65 -38.65)" fill="#fff"/>
</svg>
