<svg id="user_3_" data-name="user (3)" xmlns="http://www.w3.org/2000/svg" width="14.629" height="16.231" viewBox="0 0 14.629 16.231">
  <path id="Path_2586" data-name="Path 2586" d="M21.2,10.71ZM14.471,6.787a3.923,3.923,0,1,0,3.923,3.923A3.927,3.927,0,0,0,14.471,6.787Z" transform="translate(-7.56 -6.787)" fill="#fff"/>
  <path id="Path_2587" data-name="Path 2587" d="M140.473,313.856a1.114,1.114,0,0,1-.864-.409,6.019,6.019,0,0,0-4.672-2.215h-1.325a6.019,6.019,0,0,0-4.672,2.215,1.116,1.116,0,0,1-1.727-1.415,8.244,8.244,0,0,1,6.4-3.032h1.325a8.243,8.243,0,0,1,6.4,3.033,1.116,1.116,0,0,1-.863,1.824Z" transform="translate(-126.96 -297.626)" fill="#fff"/>
</svg>
