<svg xmlns="http://www.w3.org/2000/svg" width="7.867" height="7.863" viewBox="0 0 7.867 7.863">
  <path id="settings-gear" d="M4.7,1.014a3,3,0,0,1,.729.33L5.826.95a.487.487,0,0,1,.686,0l.4.4a.487.487,0,0,1,0,.686l-.423.423a2.983,2.983,0,0,1,.278.7h.61a.487.487,0,0,1,.488.487v.57a.487.487,0,0,1-.485.485H6.767a3,3,0,0,1-.28.692l.428.43a.487.487,0,0,1,0,.686l-.4.4a.487.487,0,0,1-.687,0L5.42,6.508a3.023,3.023,0,0,1-.716.32v.55a.487.487,0,0,1-.485.485H3.649a.487.487,0,0,1-.485-.485v-.5a3.034,3.034,0,0,1-.791-.3l-.333.333a.488.488,0,0,1-.686,0l-.4-.4a.487.487,0,0,1,0-.686l.3-.3A3.033,3.033,0,0,1,.9,4.7H.485A.487.487,0,0,1,0,4.219v-.57a.487.487,0,0,1,.485-.487H.892a3.022,3.022,0,0,1,.353-.828L.95,2.04a.488.488,0,0,1,0-.686l.4-.4a.487.487,0,0,1,.686,0l.32.32a2.984,2.984,0,0,1,.8-.31V.485A.487.487,0,0,1,3.649,0h.57A.487.487,0,0,1,4.7.485ZM3.833,2.348A1.575,1.575,0,1,1,2.258,3.923,1.575,1.575,0,0,1,3.833,2.348Z" fill="#fff" fill-rule="evenodd"/>
</svg>
