<svg xmlns="http://www.w3.org/2000/svg" width="13.007" height="12.794" viewBox="0 0 13.007 12.794">
  <path id="share-lines" d="M12.568,3.952a2.437,2.437,0,0,0-1.729.717,2.508,2.508,0,0,0-.274.326L6.706,3.389a2.412,2.412,0,0,0,.189-.943,2.448,2.448,0,1,0-.717,1.729,2.4,2.4,0,0,0,.213-.244l3.883,1.616a2.415,2.415,0,0,0-.154.851,2.54,2.54,0,0,0,.058.539L6.3,8.754q-.057-.067-.123-.134a2.443,2.443,0,1,0,.717,1.729,2.4,2.4,0,0,0-.25-1.074l3.746-1.756a2.373,2.373,0,0,0,.446.607,2.445,2.445,0,1,0,1.729-4.174Zm-9.406-2.8a1.822,1.822,0,1,1-.535,1.29A1.82,1.82,0,0,1,3.163,1.156Zm0,7.9a1.822,1.822,0,1,1-.535,1.29A1.82,1.82,0,0,1,3.163,9.056ZM11.279,5.1a1.822,1.822,0,1,1-.535,1.29A1.82,1.82,0,0,1,11.279,5.1Z" transform="translate(-2)" fill="#fff"/>
</svg>
