<svg xmlns="http://www.w3.org/2000/svg" width="19.669" height="25.211" viewBox="0 0 19.669 25.211">
  <g id="navigation-history-interface-symbol-of-a-clock-with-an-arrow-svgrepo-com" transform="translate(-50.755)">
    <path id="Path_3148" data-name="Path 3148" d="M50.755,9.334a9.33,9.33,0,0,1,18.3-2.554,1.475,1.475,0,0,0-.387.818l-.1.815-.173.923h-.954A7.355,7.355,0,1,0,56.5,15.746l-1.438,1.438A9.328,9.328,0,0,1,50.755,9.334Zm9.334-5.863a.989.989,0,0,0-.989.989V9.334a.989.989,0,0,0,.989.989h5.6a.989.989,0,0,0,0-1.979H61.079V4.461A.99.99,0,0,0,60.089,3.472Zm10.3,4.361a.5.5,0,0,0-.47-.482.5.5,0,0,0-.516.433l-.106.844-.185.985a7.42,7.42,0,0,1-.3,1.079l-.222.649-.314.691a6.31,6.31,0,0,1-.463.871c-.092.153-.184.308-.271.466-.091.123-.18.248-.269.374a8.044,8.044,0,0,1-.747.947,8.826,8.826,0,0,1-.887.907c-.1.089-.19.177-.284.267s-.209.161-.312.241a8.943,8.943,0,0,1-1.056.743,7.4,7.4,0,0,1-.968.538c-.137.068-.274.135-.406.2-.168.06-.331.125-.492.19a5.738,5.738,0,0,1-.887.3l-.654.181-.643.11a5.662,5.662,0,0,1-.894.1l-.524.04-.074,0V16.2a.5.5,0,0,0-.845-.35l-4.256,4.256a.5.5,0,0,0,0,.7L57.6,25.067a.5.5,0,0,0,.845-.351V22.3l.911-.167a9.942,9.942,0,0,0,1.448-.382l.586-.2.971-.411a8.648,8.648,0,0,0,1.171-.607c.16-.094.322-.188.487-.279.018-.01.035-.021.052-.033.129-.093.26-.185.392-.276a10.1,10.1,0,0,0,1.166-.9,11.659,11.659,0,0,0,1.186-1.14l.268-.281c.011-.012.023-.025.034-.038l.242-.306A11.36,11.36,0,0,0,68.289,16a9.975,9.975,0,0,0,.717-1.26c.072-.144.145-.287.218-.426a.587.587,0,0,0,.026-.059c.066-.177.136-.349.206-.519a7.878,7.878,0,0,0,.4-1.144l.228-.812.13-.714a8.511,8.511,0,0,0,.16-1.281l.048-.646Z" transform="translate(0)" fill="#fff"/>
  </g>
</svg>
